
  <svg width="273" height="160.5" viewBox="0 0 1456 856" fill="none" xmlns="http://www.w3.org/2000/svg" xmlns:xlink="http://www.w3.org/1999/xlink" version="1.1">
    
        <g transform="translate(0, 0)">
          <svg width="256" height="256" viewBox="0 0 256 256" fill="none" xmlns="http://www.w3.org/2000/svg">
<g clip-path="url(#clip0_33_480)">
<path d="M196 0H60C26.8629 0 0 26.8629 0 60V196C0 229.137 26.8629 256 60 256H196C229.137 256 256 229.137 256 196V60C256 26.8629 229.137 0 196 0Z" fill="#242938"/>
<path d="M40 65.6631L110.968 55.9983L111 124.453L40.0656 124.857L40 65.6631ZM110.935 132.34L110.99 200.855L40.0557 191.102L40.0517 131.881L110.935 132.34ZM119.537 54.7335L213.636 41V123.582L119.537 124.33V54.7335ZM213.658 132.984L213.636 215.195L119.537 201.914L119.406 132.831L213.658 132.984Z" fill="#00ADEF"/>
</g>
<defs>
<clipPath id="clip0_33_480">
<rect width="256" height="256" fill="white"/>
</clipPath>
</defs>
</svg>

        </g>
         
        <g transform="translate(300, 0)">
          <svg xmlns="http://www.w3.org/2000/svg" width="256" height="256" fill="none" viewBox="0 0 256 256"><rect width="256" height="256" fill="#E14E1D" rx="60"/><path fill="#fff" d="M48 38L56.6098 134.593H167.32L163.605 176.023L127.959 185.661L92.38 176.037L90.0012 149.435H57.9389L62.5236 200.716L127.951 218.888L193.461 200.716L202.244 102.655H85.8241L82.901 69.9448H205.041H205.139L208 38H48Z"/><path fill="#EBEBEB" d="M128 38H48L56.6098 134.593H128V102.655H85.8241L82.901 69.9448H128V38Z"/><path fill="#EBEBEB" d="M128 185.647L127.959 185.661L92.38 176.037L90.0012 149.435H57.9388L62.5236 200.716L127.951 218.888L128 218.874V185.647Z"/></svg>
        </g>
         
        <g transform="translate(600, 0)">
          <svg width="256" height="256" viewBox="0 0 256 256" fill="none" xmlns="http://www.w3.org/2000/svg">
<rect width="256" height="256" rx="60" fill="#0277BD"/>
<path d="M53.7527 102.651L56.6155 134.593H128.096V102.651H53.7527Z" fill="#EBEBEB"/>
<path d="M128.095 38H127.985H48L50.9036 69.9423H128.095V38Z" fill="#EBEBEB"/>
<path d="M128.095 218.841V185.608L127.955 185.645L92.3813 176.04L90.1072 150.564H72.821H58.0425L62.5175 200.718L127.948 218.882L128.095 218.841Z" fill="#EBEBEB"/>
<path d="M167.318 134.593L163.61 176.019L127.985 185.635V218.866L193.468 200.718L193.948 195.321L201.454 111.229L202.233 102.651L208 38H127.985V69.9423H172.994L170.088 102.651H127.985V134.593H167.318Z" fill="white"/>
</svg>

        </g>
         
        <g transform="translate(900, 0)">
          <svg width="256" height="256" viewBox="0 0 256 256" fill="none" xmlns="http://www.w3.org/2000/svg">
<rect width="256" height="256" rx="60" fill="#F0DB4F"/>
<path d="M67.3117 213.932L86.9027 202.076C90.6821 208.777 94.1202 214.447 102.367 214.447C110.272 214.447 115.256 211.355 115.256 199.327V117.529H139.314V199.667C139.314 224.584 124.708 235.926 103.398 235.926C84.1533 235.926 72.9819 225.959 67.3113 213.93" fill="#323330"/>
<path d="M152.381 211.354L171.969 200.013C177.126 208.434 183.828 214.62 195.684 214.62C205.653 214.62 212.009 209.636 212.009 202.762C212.009 194.514 205.479 191.592 194.481 186.782L188.468 184.203C171.111 176.815 159.597 167.535 159.597 147.945C159.597 129.901 173.345 116.153 194.826 116.153C210.12 116.153 221.118 121.481 229.022 135.4L210.291 147.429C206.166 140.04 201.7 137.119 194.826 137.119C187.78 137.119 183.312 141.587 183.312 147.429C183.312 154.646 187.78 157.568 198.09 162.037L204.104 164.614C224.553 173.379 236.067 182.313 236.067 202.418C236.067 224.072 219.055 235.928 196.2 235.928C173.861 235.928 159.426 225.274 152.381 211.354" fill="#323330"/>
</svg>

        </g>
         
        <g transform="translate(1200, 0)">
          <svg xmlns="http://www.w3.org/2000/svg" width="256" height="256" fill="none" viewBox="0 0 256 256"><rect width="256" height="256" fill="#242938" rx="60"/><path fill="#2489CA" d="M33.7158 100.208C33.7158 100.208 28.9814 96.795 34.6627 92.2381L47.8994 80.402C47.8994 80.402 51.6869 76.4172 55.6915 79.8891L177.84 172.368V216.714C177.84 216.714 177.781 223.678 168.844 222.908L33.7158 100.208Z"/><path fill="#1070B3" d="M65.1997 128.792L33.7157 157.415C33.7157 157.415 30.4805 159.822 33.7157 164.123L48.3333 177.418C48.3333 177.418 51.8052 181.147 56.9341 176.905L90.3119 151.596L65.1997 128.792Z"/><path fill="#0877B9" d="M120.474 129.029L178.215 84.9391L177.84 40.83C177.84 40.83 175.374 31.2033 167.148 36.2139L90.312 106.145L120.474 129.029Z"/><path fill="#3C99D4" d="M168.844 222.968C172.198 226.4 176.262 225.276 176.262 225.276L221.259 203.103C227.019 199.177 226.21 194.305 226.21 194.305V61.8982C226.21 56.0788 220.252 54.0667 220.252 54.0667L181.253 35.267C172.731 30 167.148 36.2139 167.148 36.2139C167.148 36.2139 174.328 31.0455 177.84 40.83V215.905C177.84 217.109 177.583 218.292 177.071 219.358C176.045 221.429 173.816 223.362 168.47 222.553L168.844 222.968Z"/></svg>
        </g>
         
        <g transform="translate(0, 300)">
          <svg width="256" height="256" viewBox="0 0 256 256" fill="none" xmlns="http://www.w3.org/2000/svg">
<rect width="256" height="256" rx="60" fill="#242938"/>
<mask id="mask0_217_156" style="mask-type:alpha" maskUnits="userSpaceOnUse" x="28" y="28" width="200" height="200">
<path d="M64.6656 197.166L31.3344 172.166C30.2952 171.394 29.4519 170.389 28.8727 169.23C28.2935 168.072 27.9946 166.795 28.0001 165.5V90.5001C27.9946 89.2054 28.2935 87.9276 28.8727 86.7698C29.4519 85.6119 30.2952 84.6065 31.3344 83.8345L64.6656 58.8345C63.7702 59.6752 63.0936 60.7218 62.6944 61.8835C62.2952 63.0451 62.1856 64.2866 62.375 65.5001V190.5C62.1856 191.714 62.2952 192.955 62.6944 194.117C63.0936 195.278 63.7702 196.325 64.6656 197.166Z" fill="white"/>
<path d="M224.29 62.7093C222.917 61.8073 221.308 61.3291 219.665 61.3344C218.601 61.3258 217.544 61.5273 216.558 61.9274C215.571 62.3274 214.673 62.9181 213.915 63.6656L213.334 64.25L146.834 128L110.04 163.291L75.9999 195.915L75.4156 196.5C74.6583 197.248 73.7604 197.84 72.7736 198.241C71.7868 198.641 70.7305 198.843 69.6656 198.834C67.8628 198.83 66.1092 198.246 64.6656 197.165L31.3344 172.166C33.0279 173.437 35.1424 174.016 37.2476 173.784C39.3528 173.552 41.2902 172.526 42.6656 170.915L79.6656 127.959L110.04 92.7093L163.25 30.9156C164.022 30.0005 164.985 29.2654 166.072 28.7617C167.159 28.2581 168.343 27.9981 169.541 28C171.184 27.9947 172.792 28.4729 174.165 29.375L224.29 62.7093Z" fill="white"/>
<path d="M224.29 193.29L174.291 226.624C172.589 227.735 170.545 228.195 168.532 227.92C166.52 227.644 164.674 226.651 163.334 225.125L110.04 163.291L79.6656 127.959L42.6656 85.0405C41.278 83.4462 39.3387 82.4358 37.2369 82.2121C35.1352 81.9883 33.0266 82.5679 31.3344 83.8344L64.6656 58.8344C66.1092 57.7545 67.8628 57.1692 69.6656 57.1656C70.7305 57.1566 71.7868 57.3582 72.7736 57.7588C73.7604 58.1595 74.6583 58.7512 75.4156 59.5L75.9999 60.0843L110.04 92.7094L146.834 128L213.334 191.75L213.915 192.334C214.673 193.082 215.571 193.672 216.558 194.072C217.544 194.472 218.601 194.674 219.665 194.665C221.308 194.671 222.917 194.193 224.29 193.29Z" fill="white"/>
<path d="M228 69.6655V186.334C228.001 187.709 227.663 189.064 227.016 190.276C226.369 191.49 225.433 192.525 224.29 193.29L174.291 226.624C175.433 225.859 176.369 224.823 177.017 223.609C177.663 222.395 178 221.041 177.999 219.665V36.3343C177.981 34.9486 177.622 33.5889 176.953 32.3751C176.284 31.1613 175.327 30.1309 174.165 29.375L224.29 62.7093C225.429 63.4774 226.364 64.5131 227.011 65.7258C227.658 66.9385 227.997 68.2911 228 69.6655Z" fill="white"/>
</mask>
<g mask="url(#mask0_217_156)">
<path d="M64.6656 197.165L31.3344 172.166C30.2952 171.394 29.4519 170.387 28.8727 169.23C28.2935 168.072 27.9946 166.794 28.0001 165.5V90.4999C27.9946 89.2052 28.2935 87.9273 28.8727 86.7696C29.4519 85.6117 30.2952 84.6062 31.3344 83.8342L64.6656 58.8342C63.7702 59.675 63.0936 60.7216 62.6944 61.8832C62.2952 63.0449 62.1856 64.2863 62.375 65.4999V190.5C62.1856 191.714 62.2952 192.955 62.6944 194.117C63.0936 195.278 63.7702 196.324 64.6656 197.165Z" fill="#5E438F"/>
<g filter="url(#filter0_dd_217_156)">
<path d="M224.289 62.7093C222.917 61.8073 221.308 61.3291 219.665 61.3344C218.601 61.3258 217.544 61.5273 216.557 61.9274C215.571 62.3274 214.673 62.9181 213.915 63.6656L213.334 64.25L177.914 98.2093L146.834 128L110.04 163.291L75.9993 195.915L75.4151 196.5C74.6577 197.248 73.7598 197.84 72.7731 198.241C71.7862 198.641 70.73 198.843 69.665 198.834C67.8622 198.83 66.1087 198.246 64.665 197.165L31.3338 172.166C33.0272 173.437 35.1418 174.016 37.247 173.784C39.3522 173.552 41.2897 172.526 42.6651 170.915L61.3338 149.25L79.665 127.959L110.04 92.7093L163.249 30.9156C164.022 30.0005 164.985 29.2654 166.072 28.7617C167.158 28.2581 168.343 27.9981 169.539 28C171.183 27.9947 172.791 28.4729 174.165 29.375L224.289 62.7093Z" fill="url(#paint0_linear_217_156)"/>
</g>
<g filter="url(#filter1_dd_217_156)">
<path d="M224.289 193.29L174.29 226.625C172.589 227.736 170.545 228.195 168.532 227.92C166.519 227.644 164.674 226.652 163.334 225.125L110.04 163.291L79.665 127.959L61.3338 106.709L42.6651 85.0407C41.2774 83.4464 39.338 82.436 37.2363 82.2122C35.1347 81.9884 33.026 82.5681 31.3338 83.8344L64.665 58.8345C66.1087 57.7546 67.8622 57.1693 69.665 57.1658C70.73 57.1568 71.7862 57.3584 72.7731 57.759C73.7598 58.1596 74.6577 58.7514 75.4151 59.5002L75.9993 60.0845L110.04 92.7094L146.834 128L177.958 157.835L213.334 191.75L213.915 192.335C214.673 193.082 215.571 193.672 216.557 194.072C217.544 194.472 218.601 194.674 219.665 194.665C221.308 194.671 222.917 194.192 224.289 193.29Z" fill="url(#paint1_linear_217_156)"/>
</g>
<g filter="url(#filter2_dd_217_156)">
<path d="M228 69.6653V186.333C228.001 187.709 227.663 189.063 227.016 190.277C226.369 191.489 225.433 192.525 224.29 193.29L174.29 226.624C175.433 225.859 176.369 224.823 177.015 223.609C177.663 222.395 178 221.041 177.999 219.665V36.3341C177.981 34.9485 177.622 33.5886 176.953 32.3748C176.284 31.161 175.327 30.1307 174.165 29.3748L224.29 62.709C225.429 63.4771 226.363 64.5129 227.011 65.7256C227.657 66.9383 227.997 68.291 228 69.6653Z" fill="url(#paint2_linear_217_156)"/>
</g>
</g>
<defs>
<filter id="filter0_dd_217_156" x="26.1529" y="24.1143" width="203.317" height="181.196" filterUnits="userSpaceOnUse" color-interpolation-filters="sRGB">
<feFlood flood-opacity="0" result="BackgroundImageFix"/>
<feColorMatrix in="SourceAlpha" type="matrix" values="0 0 0 0 0 0 0 0 0 0 0 0 0 0 0 0 0 0 127 0" result="hardAlpha"/>
<feOffset dy="0.246095"/>
<feGaussianBlur stdDeviation="0.246095"/>
<feColorMatrix type="matrix" values="0 0 0 0 0 0 0 0 0 0 0 0 0 0 0 0 0 0 0.24 0"/>
<feBlend mode="normal" in2="BackgroundImageFix" result="effect1_dropShadow_217_156"/>
<feColorMatrix in="SourceAlpha" type="matrix" values="0 0 0 0 0 0 0 0 0 0 0 0 0 0 0 0 0 0 127 0" result="hardAlpha"/>
<feOffset dy="1.29524"/>
<feGaussianBlur stdDeviation="2.59048"/>
<feColorMatrix type="matrix" values="0 0 0 0 0 0 0 0 0 0 0 0 0 0 0 0 0 0 0.22 0"/>
<feBlend mode="normal" in2="effect1_dropShadow_217_156" result="effect2_dropShadow_217_156"/>
<feBlend mode="normal" in="SourceGraphic" in2="effect2_dropShadow_217_156" result="shape"/>
</filter>
<filter id="filter1_dd_217_156" x="26.1529" y="53.2798" width="203.317" height="181.194" filterUnits="userSpaceOnUse" color-interpolation-filters="sRGB">
<feFlood flood-opacity="0" result="BackgroundImageFix"/>
<feColorMatrix in="SourceAlpha" type="matrix" values="0 0 0 0 0 0 0 0 0 0 0 0 0 0 0 0 0 0 127 0" result="hardAlpha"/>
<feOffset dy="0.246095"/>
<feGaussianBlur stdDeviation="0.246095"/>
<feColorMatrix type="matrix" values="0 0 0 0 0 0 0 0 0 0 0 0 0 0 0 0 0 0 0.24 0"/>
<feBlend mode="normal" in2="BackgroundImageFix" result="effect1_dropShadow_217_156"/>
<feColorMatrix in="SourceAlpha" type="matrix" values="0 0 0 0 0 0 0 0 0 0 0 0 0 0 0 0 0 0 127 0" result="hardAlpha"/>
<feOffset dy="1.29524"/>
<feGaussianBlur stdDeviation="2.59048"/>
<feColorMatrix type="matrix" values="0 0 0 0 0 0 0 0 0 0 0 0 0 0 0 0 0 0 0.22 0"/>
<feBlend mode="normal" in2="effect1_dropShadow_217_156" result="effect2_dropShadow_217_156"/>
<feBlend mode="normal" in="SourceGraphic" in2="effect2_dropShadow_217_156" result="shape"/>
</filter>
<filter id="filter2_dd_217_156" x="158.622" y="13.8319" width="84.9208" height="228.335" filterUnits="userSpaceOnUse" color-interpolation-filters="sRGB">
<feFlood flood-opacity="0" result="BackgroundImageFix"/>
<feColorMatrix in="SourceAlpha" type="matrix" values="0 0 0 0 0 0 0 0 0 0 0 0 0 0 0 0 0 0 127 0" result="hardAlpha"/>
<feOffset/>
<feGaussianBlur stdDeviation="0.129524"/>
<feColorMatrix type="matrix" values="0 0 0 0 0 0 0 0 0 0 0 0 0 0 0 0 0 0 0.24 0"/>
<feBlend mode="normal" in2="BackgroundImageFix" result="effect1_dropShadow_217_156"/>
<feColorMatrix in="SourceAlpha" type="matrix" values="0 0 0 0 0 0 0 0 0 0 0 0 0 0 0 0 0 0 127 0" result="hardAlpha"/>
<feOffset/>
<feGaussianBlur stdDeviation="7.77143"/>
<feColorMatrix type="matrix" values="0 0 0 0 0 0 0 0 0 0 0 0 0 0 0 0 0 0 0.3 0"/>
<feBlend mode="normal" in2="effect1_dropShadow_217_156" result="effect2_dropShadow_217_156"/>
<feBlend mode="normal" in="SourceGraphic" in2="effect2_dropShadow_217_156" result="shape"/>
</filter>
<linearGradient id="paint0_linear_217_156" x1="190.499" y1="28" x2="41.9893" y2="177.471" gradientUnits="userSpaceOnUse">
<stop stop-color="#7252AA"/>
<stop offset="1" stop-color="#7252AA"/>
</linearGradient>
<linearGradient id="paint1_linear_217_156" x1="46.7501" y1="64.4571" x2="186.332" y2="220.705" gradientUnits="userSpaceOnUse">
<stop stop-color="#AE7FE2"/>
<stop offset="1" stop-color="#9A70D4"/>
</linearGradient>
<linearGradient id="paint2_linear_217_156" x1="200.49" y1="25.3528" x2="200.49" y2="226.456" gradientUnits="userSpaceOnUse">
<stop stop-color="#D59DFF"/>
<stop offset="1" stop-color="#C18EF1"/>
</linearGradient>
</defs>
</svg>

        </g>
         
        <g transform="translate(300, 300)">
          <svg xmlns="http://www.w3.org/2000/svg" width="256" height="256" fill="none" viewBox="0 0 256 256"><rect width="256" height="256" fill="#242938" rx="60"/><path fill="#41CD52" fill-rule="evenodd" d="M99.5884 90.2637C90.8797 90.2637 84.8736 93.0035 81.5703 98.5552C78.3421 104.107 76.6904 112.903 76.6904 125.088C76.6904 137.201 78.267 145.925 81.4202 151.116C84.5733 156.307 90.6544 158.975 99.5884 158.975C108.522 158.975 114.528 156.38 117.682 151.26C120.76 146.141 122.336 137.417 122.336 125.232C122.336 112.975 120.76 104.107 117.531 98.5552C114.303 93.0035 108.297 90.2637 99.5884 90.2637" clip-rule="evenodd"/><path fill="#41CD52" fill-rule="evenodd" d="M178.837 169.771C170.903 169.771 165.464 168.063 162.516 164.647C159.57 161.232 158.059 154.755 158.059 145.22V114.477H147.331V102.237H158.059V83.0234H173.246V102.237H192.587V114.548H173.246V143.654C173.246 149.062 173.699 152.62 174.53 154.329C175.36 156.108 177.552 156.962 180.952 156.962L192.436 156.534L193.116 168.063C186.921 169.201 182.16 169.771 178.837 169.771V169.771ZM135.091 183.576L120.66 189.91L108.194 170.624C106.38 171.123 103.585 171.408 99.656 171.408C85.0741 171.408 74.8743 167.707 69.1322 160.306C63.3901 152.906 60.5191 141.164 60.5191 125.222C60.5191 109.211 63.4657 97.3272 69.2833 89.5704C75.101 81.8129 85.2252 77.8989 99.656 77.8989C114.087 77.8989 124.211 81.7425 129.953 89.4992C135.771 97.1849 138.642 109.069 138.642 125.152C138.642 135.755 137.433 144.294 135.091 150.771C132.672 157.318 128.82 162.299 123.38 165.715L135.091 183.576ZM217.369 51H209.663H47.7505L17 79.9634V176.816V184.715V204.783H38.3062H46.0127H207.925L238.675 175.82V78.9664V71.068V51H217.369Z" clip-rule="evenodd"/></svg>
        </g>
         
        <g transform="translate(600, 300)">
          <svg width="256" height="256" viewBox="0 0 256 256" fill="none" xmlns="http://www.w3.org/2000/svg">
<g clip-path="url(#clip0_36_1186)">
<path d="M196 0H60C26.8629 0 0 26.8629 0 60V196C0 229.137 26.8629 256 60 256H196C229.137 256 256 229.137 256 196V60C256 26.8629 229.137 0 196 0Z" fill="#242938"/>
<g clip-path="url(#clip1_36_1186)">
<path d="M50.4451 66.8836L40.1711 180.411L99.7602 214.829L112.26 200.445L199.589 138.459L213.459 110.205L180.068 82.2945L114.144 40L50.4451 66.8836Z" fill="url(#paint0_linear_36_1186)"/>
<path d="M73.048 130.068L47.363 168.082L111.575 200.616L174.418 73.904L170.137 40.1711L131.781 73.904L73.048 130.068Z" fill="url(#paint1_linear_36_1186)"/>
<path d="M213.459 110.377L180.068 82.8081V142.055L199.76 138.459L213.459 110.377Z" fill="#09C4EF"/>
<path d="M160.205 214.829L90.5137 194.623L93.0822 181.438L181.952 118.767L193.253 114.486L214.829 197.021L160.205 214.829Z" fill="url(#paint2_linear_36_1186)"/>
<path d="M181.438 73.5615H73.2192V181.781H181.438V73.5615Z" fill="black"/>
<path d="M103.528 87.9453H83.322V132.637H92.9111V119.281H103.185L105.411 118.938L107.98 118.254L110.548 117.226L112.26 116.199L113.973 114.829L115.685 112.945L117.397 110.206L118.254 107.637L118.596 104.384L118.425 101.13L117.74 98.2193L116.712 95.6508L115.514 93.7672L113.973 92.2261L112.432 91.0275L110.891 90.0001L109.349 89.3152L108.151 88.8015L106.61 88.459L104.897 88.1165L103.528 87.9453Z" fill="white" stroke="black"/>
<path d="M101.815 96.678H93.0823V110.377H102.158L103.87 109.863L105.582 109.178L106.952 107.979L107.98 106.267L108.493 104.555V102.329L108.151 101.13L107.466 99.7602L106.438 98.5615L105.24 97.7054L103.699 97.0204L101.815 96.678Z" fill="black" stroke="black"/>
<path d="M123.904 161.575H83.4932V168.082H123.904V161.575Z" fill="white"/>
<path d="M169.795 110.365L169.795 110.371V110.377C169.795 115.414 167.585 120.727 163.845 124.938C159.652 129.658 153.549 132.979 146.507 132.979C133.163 132.979 122.877 123.4 122.877 110.548C122.877 104.107 124.962 98.2442 128.997 93.9939C133.03 89.7449 139.025 87.0918 146.874 87.0918C153.549 87.0918 159.501 89.9045 163.673 94.2284C167.832 98.5397 170.218 104.349 169.795 110.365Z" fill="white" stroke="black"/>
<path d="M160.377 109.863C160.209 117.567 155.411 124.075 145.479 124.075C137.346 124.075 132.808 117.145 132.808 109.863C132.808 102.581 137.86 96.3357 145.993 96.3357C154.126 96.3357 160.548 101.986 160.377 109.863Z" fill="black"/>
<path d="M157.294 101.473L163.801 94.1096L171.678 102.842V116.199L163.801 124.932L157.466 118.767L157.294 101.473Z" fill="black" stroke="black"/>
</g>
</g>
<defs>
<linearGradient id="paint0_linear_36_1186" x1="113.801" y1="40" x2="97.5342" y2="215" gradientUnits="userSpaceOnUse">
<stop stop-color="#2CD788"/>
<stop offset="0.37966" stop-color="#24D68E"/>
<stop offset="1" stop-color="#1ED593"/>
</linearGradient>
<linearGradient id="paint1_linear_36_1186" x1="169.623" y1="40.3424" x2="64.3151" y2="174.76" gradientUnits="userSpaceOnUse">
<stop stop-color="#ADE46C"/>
<stop offset="0.886667" stop-color="#59DC7E"/>
<stop offset="1" stop-color="#1FD593"/>
</linearGradient>
<linearGradient id="paint2_linear_36_1186" x1="99.2465" y1="215" x2="215" y2="197.021" gradientUnits="userSpaceOnUse">
<stop stop-color="#BAE768"/>
<stop offset="0.993345" stop-color="#FBF849"/>
<stop offset="1" stop-color="#FAF748"/>
</linearGradient>
<clipPath id="clip0_36_1186">
<rect width="256" height="256" fill="white"/>
</clipPath>
<clipPath id="clip1_36_1186">
<rect width="175" height="175" fill="white" transform="translate(40 40)"/>
</clipPath>
</defs>
</svg>

        </g>
         
        <g transform="translate(900, 300)">
          <svg width="256" height="256" viewBox="0 0 256 256" fill="none" xmlns="http://www.w3.org/2000/svg">
<rect width="256" height="256" rx="60" fill="#242938"/>
<path fill-rule="evenodd" clip-rule="evenodd" d="M36.4065 203.248C35.1443 203.286 33.8902 203.033 32.7411 202.51C31.5921 201.986 30.5788 201.205 29.7794 200.227C28.9801 199.169 28.4302 197.943 28.1705 196.643C27.9108 195.342 27.9482 193.999 28.2797 192.715L58.2516 61.7869C58.9172 59.073 60.4491 56.6499 62.6152 54.8845C64.7813 53.1191 67.4636 52.1077 70.2561 52.0034H219.594C220.856 51.9671 222.11 52.2206 223.258 52.7442C224.407 53.2679 225.421 54.0478 226.221 55.0242C227.02 56.083 227.57 57.3084 227.829 58.6091C228.089 59.9098 228.052 61.2524 227.721 62.5368L197.728 193.472C197.062 196.186 195.53 198.609 193.364 200.374C191.198 202.14 188.516 203.151 185.723 203.255H36.4065V203.248Z" fill="url(#paint0_linear_258_44)"/>
<path fill-rule="evenodd" clip-rule="evenodd" d="M70.2557 53.6861H219.594C220.64 53.6433 221.681 53.853 222.628 54.2974C223.576 54.7418 224.403 55.4078 225.039 56.2393C225.675 57.0707 226.101 58.043 226.282 59.0741C226.463 60.1051 226.393 61.1645 226.078 62.1628L196.085 193.091C195.494 195.427 194.168 197.512 192.302 199.039C190.437 200.565 188.13 201.451 185.723 201.567H36.4062C35.3602 201.61 34.3194 201.401 33.3716 200.956C32.4239 200.512 31.597 199.846 30.961 199.014C30.325 198.183 29.8986 197.21 29.7177 196.179C29.5368 195.148 29.6069 194.089 29.9219 193.091L59.9152 62.1628C60.504 59.8289 61.8265 57.7457 63.688 56.2197C65.5495 54.6938 67.8517 53.8057 70.2557 53.6861V53.6861Z" fill="url(#paint1_linear_258_44)"/>
<path fill-rule="evenodd" clip-rule="evenodd" d="M128.286 167.219H164.606C166.663 167.306 168.607 168.185 170.032 169.671C171.457 171.158 172.253 173.137 172.253 175.196C172.253 177.255 171.457 179.234 170.032 180.721C168.607 182.207 166.663 183.086 164.606 183.173H128.286C126.229 183.086 124.285 182.207 122.86 180.721C121.435 179.234 120.639 177.255 120.639 175.196C120.639 173.137 121.435 171.158 122.86 169.671C124.285 168.185 126.229 167.306 128.286 167.219V167.219Z" fill="#2C5591"/>
<path fill-rule="evenodd" clip-rule="evenodd" d="M151.846 131.756C150.806 133.505 149.358 134.975 147.625 136.041L80.2186 184.423C78.3415 185.644 76.0674 186.098 73.8654 185.691C71.6634 185.284 69.7015 184.048 68.3843 182.237C67.0671 180.426 66.4952 178.179 66.7864 175.959C67.0777 173.739 68.2099 171.715 69.9495 170.305L130.736 126.286V125.386L92.5445 84.7812C91.1206 83.0683 90.4045 80.8765 90.5422 78.6533C90.6799 76.4302 91.6611 74.3435 93.2855 72.8194C94.9098 71.2953 97.0547 70.4489 99.2821 70.4529C101.51 70.4569 103.651 71.3111 105.27 72.841L151.103 121.594C152.334 122.967 153.076 124.709 153.21 126.549C153.344 128.388 152.864 130.219 151.846 131.756Z" fill="#2C5591"/>
<path fill-rule="evenodd" clip-rule="evenodd" d="M150.138 130.071C149.103 131.821 147.657 133.291 145.925 134.356L78.54 182.745C76.6623 183.94 74.3996 184.375 72.2127 183.96C70.0258 183.546 68.0791 182.313 66.7692 180.513C65.4593 178.714 64.8847 176.482 65.1624 174.274C65.44 172.065 66.5491 170.046 68.2637 168.626L129.057 124.608V123.701L90.8658 83.0741C89.4286 81.3622 88.7018 79.1648 88.8348 76.9335C88.9679 74.7023 89.9507 72.6067 91.5811 71.0778C93.2116 69.5488 95.3659 68.7025 97.6011 68.713C99.8363 68.7234 101.983 69.5898 103.599 71.134L149.424 119.887C150.661 121.262 151.403 123.011 151.532 124.856C151.662 126.701 151.171 128.537 150.138 130.071V130.071Z" fill="white"/>
<path fill-rule="evenodd" clip-rule="evenodd" d="M127.287 166.278H163.607C165.613 166.278 167.536 167.075 168.955 168.493C170.373 169.911 171.17 171.835 171.17 173.84C171.17 175.846 170.373 177.77 168.955 179.188C167.536 180.606 165.613 181.403 163.607 181.403H127.287C125.281 181.403 123.357 180.606 121.939 179.188C120.521 177.77 119.724 175.846 119.724 173.84C119.724 171.835 120.521 169.911 121.939 168.493C123.357 167.075 125.281 166.278 127.287 166.278V166.278Z" fill="white"/>
<defs>
<linearGradient id="paint0_linear_258_44" x1="180.31" y1="174.355" x2="65.5857" y2="71.8775" gradientUnits="userSpaceOnUse">
<stop stop-color="#5391FE"/>
<stop offset="1" stop-color="#3E6DBF"/>
</linearGradient>
<linearGradient id="paint1_linear_258_44" x1="64.4427" y1="70.5109" x2="177.996" y2="172.56" gradientUnits="userSpaceOnUse">
<stop stop-color="#5391FE"/>
<stop offset="1" stop-color="#3E6DBF"/>
</linearGradient>
</defs>
</svg>

        </g>
         
        <g transform="translate(1200, 300)">
          <svg width="256" height="256" viewBox="0 0 256 256" fill="none" xmlns="http://www.w3.org/2000/svg">
<rect width="256" height="256" rx="60" fill="#242938"/>
<path d="M128.001 30C72.7791 30 28 74.7708 28 130.001C28 174.184 56.6533 211.668 96.3867 224.891C101.384 225.817 103.219 222.722 103.219 220.081C103.219 217.696 103.126 209.819 103.083 201.463C75.2631 207.512 69.3927 189.664 69.3927 189.664C64.8437 178.105 58.2894 175.032 58.2894 175.032C49.2163 168.825 58.9733 168.953 58.9733 168.953C69.0151 169.658 74.3026 179.258 74.3026 179.258C83.2217 194.546 97.6965 190.126 103.403 187.571C104.301 181.107 106.892 176.696 109.752 174.199C87.5405 171.67 64.1913 163.095 64.1913 124.778C64.1913 113.86 68.0977 104.939 74.4947 97.9362C73.4564 95.4175 70.0335 85.2465 75.4635 71.4722C75.4635 71.4722 83.8609 68.7845 102.971 81.7226C110.948 79.5069 119.502 78.3958 128.001 78.3577C136.499 78.3958 145.061 79.5069 153.052 81.7226C172.139 68.7845 180.525 71.4722 180.525 71.4722C185.968 85.2465 182.544 95.4175 181.505 97.9362C187.917 104.939 191.797 113.86 191.797 124.778C191.797 163.187 168.403 171.644 146.135 174.119C149.722 177.223 152.918 183.308 152.918 192.638C152.918 206.018 152.802 216.787 152.802 220.081C152.802 222.742 154.602 225.86 159.671 224.878C199.383 211.64 228 174.169 228 130.001C228 74.7708 183.227 30 128.001 30ZM65.4536 172.453C65.2333 172.95 64.4517 173.099 63.7396 172.758C63.0143 172.432 62.6069 171.754 62.8421 171.256C63.0574 170.744 63.8406 170.602 64.5643 170.945C65.2913 171.271 65.7053 171.955 65.4536 172.453ZM70.3725 176.842C69.8956 177.285 68.9633 177.079 68.3307 176.38C67.6766 175.683 67.554 174.751 68.0376 174.302C68.5294 173.86 69.4336 174.067 70.0893 174.764C70.7434 175.47 70.8709 176.395 70.3725 176.842ZM73.7471 182.458C73.1344 182.884 72.1325 182.485 71.5132 181.595C70.9004 180.706 70.9004 179.64 71.5264 179.212C72.1474 178.785 73.1344 179.169 73.762 180.052C74.373 180.956 74.373 182.023 73.7471 182.458ZM79.4542 188.962C78.9061 189.566 77.7386 189.404 76.8841 188.579C76.0098 187.773 75.7663 186.629 76.3161 186.024C76.8709 185.418 78.045 185.589 78.9061 186.407C79.7738 187.211 80.0387 188.364 79.4542 188.962ZM86.8301 191.157C86.5883 191.941 85.4639 192.297 84.3312 191.964C83.2002 191.621 82.46 190.704 82.6885 189.912C82.9237 189.124 84.053 188.753 85.194 189.109C86.3234 189.45 87.0652 190.361 86.8301 191.157ZM95.2242 192.089C95.2523 192.913 94.2919 193.597 93.1029 193.612C91.9073 193.639 90.9402 192.971 90.9269 192.16C90.9269 191.327 91.8659 190.65 93.0615 190.63C94.2505 190.607 95.2242 191.269 95.2242 192.089ZM103.47 191.773C103.613 192.577 102.787 193.404 101.606 193.624C100.445 193.836 99.3702 193.339 99.2229 192.541C99.0788 191.716 99.92 190.89 101.079 190.676C102.262 190.471 103.32 190.955 103.47 191.773Z" fill="white"/>
</svg>

        </g>
         
        <g transform="translate(0, 600)">
          <svg xmlns="http://www.w3.org/2000/svg" width="256" height="256" fill="none" viewBox="0 0 256 256"><rect width="256" height="256" fill="#F03C2E" rx="60"/><g clip-path="url(#clip0_7_283)"><path fill="#fff" d="M224.225 119.094L136.906 31.775C135.711 30.5787 134.291 29.6298 132.729 28.9824C131.166 28.3349 129.491 28.0017 127.8 28.0017C126.109 28.0017 124.434 28.3349 122.871 28.9824C121.309 29.6298 119.889 30.5787 118.694 31.775L100.569 49.9L123.569 72.9C128.919 71.025 135.044 72.3062 139.306 76.5687C141.335 78.6014 142.752 81.1638 143.394 83.9632C144.036 86.7626 143.878 89.6862 142.937 92.4L165.106 114.569C170.469 112.719 176.656 113.912 180.937 118.206C182.361 119.63 183.49 121.32 184.26 123.18C185.03 125.04 185.426 127.033 185.426 129.046C185.425 131.059 185.029 133.052 184.258 134.912C183.487 136.771 182.358 138.461 180.934 139.884C179.511 141.308 177.821 142.436 175.961 143.206C174.101 143.977 172.108 144.373 170.095 144.372C168.082 144.372 166.088 143.975 164.229 143.205C162.369 142.434 160.679 141.305 159.256 139.881C154.756 135.381 153.644 128.756 155.919 123.212L135.244 102.537V156.944C136.745 157.686 138.116 158.666 139.306 159.844C140.729 161.267 141.858 162.956 142.629 164.816C143.399 166.675 143.795 168.668 143.795 170.681C143.795 172.694 143.399 174.687 142.629 176.546C141.858 178.406 140.729 180.096 139.306 181.519C137.883 182.942 136.193 184.071 134.334 184.841C132.474 185.611 130.481 186.008 128.469 186.008C126.456 186.008 124.463 185.611 122.604 184.841C120.744 184.071 119.054 182.942 117.631 181.519C116.206 180.096 115.076 178.407 114.305 176.548C113.533 174.688 113.136 172.694 113.136 170.681C113.136 168.668 113.533 166.675 114.305 164.815C115.076 162.955 116.206 161.266 117.631 159.844C119.112 158.369 120.756 157.25 122.65 156.5V101.587C120.825 100.837 119.112 99.7312 117.631 98.2437C115.479 96.0943 114.016 93.3526 113.428 90.3684C112.841 87.3841 113.155 84.2924 114.331 81.4875L91.6437 58.8125L31.7687 118.625C30.5716 119.821 29.6219 121.241 28.9739 122.804C28.3259 124.367 27.9924 126.042 27.9924 127.734C27.9924 129.426 28.3259 131.102 28.9739 132.665C29.6219 134.228 30.5716 135.648 31.7687 136.844L119.094 224.156C120.289 225.352 121.709 226.301 123.271 226.949C124.834 227.596 126.509 227.929 128.2 227.929C129.891 227.929 131.566 227.596 133.129 226.949C134.691 226.301 136.111 225.352 137.306 224.156L224.225 137.375C225.422 136.179 226.372 134.759 227.02 133.196C227.668 131.633 228.001 129.958 228.001 128.266C228.001 126.574 227.668 124.898 227.02 123.335C226.372 121.772 225.422 120.352 224.225 119.156"/></g><defs><clipPath id="clip0_7_283"><rect width="200" height="200" fill="#fff" transform="translate(28 28)"/></clipPath></defs></svg>
        </g>
         
        <g transform="translate(300, 600)">
          <svg xmlns="http://www.w3.org/2000/svg" width="256" height="256" fill="none" viewBox="0 0 256 256"><rect width="256" height="256" fill="#2B2E3A" rx="60"/><path fill="#9FEAF9" d="M100.768 70.772C74.763 66.036 54.201 70.993 46.006 85.187C39.891 95.779 41.639 109.822 50.246 124.833C50.4159 125.145 50.6464 125.419 50.924 125.641C51.2015 125.862 51.5204 126.026 51.8621 126.123C52.2038 126.219 52.5614 126.247 52.9138 126.203C53.2662 126.16 53.6064 126.047 53.9144 125.87C54.2225 125.693 54.4921 125.457 54.7076 125.175C54.923 124.892 55.0799 124.57 55.1691 124.226C55.2583 123.883 55.278 123.525 55.2269 123.173C55.1759 122.822 55.0552 122.484 54.872 122.18C47.12 108.658 45.611 96.539 50.625 87.854C57.433 76.063 75.773 71.641 99.812 76.019C100.503 76.134 101.211 75.9727 101.784 75.5699C102.357 75.1671 102.748 74.5552 102.874 73.8663C102.999 73.1773 102.849 72.4666 102.455 71.8877C102.061 71.3088 101.455 70.908 100.768 70.772V70.772ZM63.769 143.079C74.284 154.634 87.945 165.473 103.525 174.467C141.248 196.247 181.408 202.068 201.2 188.573C201.496 188.379 201.75 188.127 201.948 187.833C202.146 187.54 202.283 187.209 202.352 186.862C202.421 186.515 202.42 186.157 202.349 185.81C202.278 185.463 202.139 185.134 201.939 184.841C201.74 184.548 201.484 184.298 201.187 184.106C200.89 183.913 200.557 183.782 200.208 183.719C199.86 183.656 199.502 183.663 199.157 183.74C198.811 183.817 198.484 183.962 198.195 184.167C180.481 196.245 142.333 190.715 106.192 169.849C91.078 161.123 77.849 150.627 67.714 139.489C67.4787 139.228 67.1942 139.017 66.877 138.866C66.5597 138.716 66.2159 138.63 65.8652 138.613C65.5145 138.595 65.1639 138.648 64.8334 138.766C64.5029 138.885 64.1991 139.067 63.9395 139.304C63.6798 139.54 63.4693 139.825 63.3202 140.143C63.171 140.461 63.086 140.805 63.0702 141.156C63.0544 141.507 63.1079 141.857 63.2278 142.187C63.3478 142.517 63.5316 142.82 63.769 143.079V143.079Z"/><path fill="#9FEAF9" d="M194.886 139.835C211.914 119.719 217.859 99.487 209.681 85.323C203.664 74.9 190.943 69.397 174.036 69.177C173.335 69.178 172.663 69.4548 172.165 69.9474C171.667 70.44 171.382 71.1089 171.373 71.8095C171.364 72.5101 171.631 73.1862 172.116 73.6915C172.602 74.1968 173.267 74.4908 173.967 74.51C189.172 74.708 200.132 79.449 205.063 87.99C211.855 99.755 206.553 117.797 190.815 136.389C190.584 136.656 190.408 136.965 190.298 137.301C190.188 137.636 190.145 137.989 190.172 138.341C190.199 138.693 190.296 139.035 190.457 139.349C190.617 139.664 190.839 139.943 191.108 140.171C191.377 140.398 191.689 140.571 192.025 140.677C192.362 140.784 192.716 140.823 193.067 140.791C193.418 140.76 193.76 140.66 194.072 140.495C194.385 140.331 194.661 140.107 194.886 139.835V139.835ZM151.125 71.66C135.729 74.959 119.341 81.409 103.603 90.495C64.661 112.978 39.258 146.131 42.786 170.17C42.833 170.52 42.949 170.857 43.1273 171.161C43.3055 171.466 43.5425 171.732 43.8244 171.945C44.1063 172.157 44.4276 172.311 44.7696 172.399C45.1116 172.486 45.4675 172.505 45.8167 172.453C46.1659 172.402 46.5015 172.282 46.8039 172.1C47.1064 171.918 47.3697 171.678 47.5787 171.393C47.7876 171.109 47.938 170.786 48.0211 170.443C48.1043 170.1 48.1185 169.744 48.063 169.395C44.93 148.051 69.01 116.626 106.27 95.114C121.537 86.299 137.405 80.054 152.242 76.875C152.589 76.8066 152.919 76.6697 153.213 76.4724C153.507 76.2751 153.759 76.0212 153.953 75.7257C154.148 75.4302 154.282 75.0988 154.347 74.751C154.413 74.4032 154.408 74.0458 154.334 73.6998C154.26 73.3537 154.118 73.0259 153.916 72.7353C153.713 72.4448 153.456 72.1974 153.157 72.0075C152.858 71.8177 152.525 71.6892 152.176 71.6295C151.827 71.5699 151.47 71.5802 151.125 71.66Z"/><path fill="#9FEAF9" d="M88.036 186.835C96.94 211.695 111.505 227.002 127.883 227.002C139.828 227.002 150.879 218.859 159.497 204.524C159.684 204.224 159.808 203.889 159.865 203.54C159.921 203.191 159.907 202.835 159.824 202.491C159.741 202.147 159.591 201.824 159.381 201.539C159.172 201.254 158.909 201.013 158.606 200.831C158.303 200.649 157.966 200.529 157.617 200.478C157.267 200.427 156.91 200.446 156.568 200.534C156.226 200.622 155.904 200.777 155.622 200.99C155.34 201.203 155.104 201.471 154.926 201.776C147.181 214.659 137.668 221.668 127.883 221.668C114.278 221.668 101.287 208.016 93.058 185.038C92.9453 184.702 92.7666 184.391 92.5323 184.125C92.2981 183.858 92.013 183.641 91.6938 183.486C91.3746 183.331 91.0277 183.241 90.6734 183.222C90.3191 183.203 89.9645 183.255 89.6304 183.374C89.2963 183.494 88.9895 183.679 88.7278 183.918C88.4662 184.158 88.2549 184.448 88.1065 184.77C87.9582 185.092 87.8756 185.441 87.8636 185.795C87.8517 186.15 87.9106 186.504 88.037 186.835H88.036ZM169.358 181.972C173.968 167.244 176.443 150.254 176.443 132.549C176.443 88.3701 160.98 50.2861 138.956 40.5071C138.313 40.2376 137.589 40.2309 136.941 40.4885C136.293 40.746 135.771 41.2473 135.488 41.8848C135.205 42.5223 135.183 43.2454 135.427 43.899C135.671 44.5525 136.161 45.0846 136.792 45.3811C156.435 54.1041 171.109 90.2471 171.109 132.549C171.109 149.726 168.712 166.179 164.269 180.379C164.159 180.715 164.116 181.069 164.144 181.422C164.172 181.774 164.269 182.117 164.431 182.432C164.592 182.746 164.815 183.025 165.085 183.253C165.356 183.48 165.669 183.652 166.006 183.757C166.343 183.863 166.698 183.9 167.05 183.867C167.402 183.835 167.744 183.732 168.056 183.566C168.368 183.4 168.644 183.174 168.867 182.9C169.091 182.626 169.258 182.311 169.359 181.972H169.358ZM219.582 179.36C219.582 172.311 213.868 166.597 206.819 166.597C199.77 166.597 194.056 172.311 194.056 179.36C194.056 186.409 199.77 192.123 206.819 192.123C213.868 192.123 219.582 186.409 219.582 179.36ZM214.249 179.36C214.249 180.336 214.057 181.302 213.683 182.203C213.31 183.105 212.763 183.924 212.073 184.614C211.383 185.304 210.564 185.851 209.662 186.225C208.761 186.598 207.795 186.79 206.819 186.79C205.843 186.79 204.877 186.598 203.976 186.225C203.074 185.851 202.255 185.304 201.565 184.614C200.875 183.924 200.328 183.105 199.955 182.203C199.581 181.302 199.389 180.336 199.389 179.36C199.389 177.39 200.172 175.5 201.565 174.106C202.959 172.713 204.848 171.93 206.819 171.93C208.79 171.93 210.679 172.713 212.073 174.106C213.466 175.5 214.249 177.39 214.249 179.36ZM48.763 192.123C55.813 192.123 61.527 186.409 61.527 179.36C61.527 172.311 55.812 166.597 48.763 166.597C41.715 166.597 36 172.311 36 179.36C36 186.409 41.715 192.123 48.763 192.123ZM48.763 186.79C46.7924 186.79 44.9026 186.007 43.5092 184.614C42.1158 183.221 41.333 181.331 41.333 179.36C41.333 177.39 42.1158 175.5 43.5092 174.106C44.9026 172.713 46.7924 171.93 48.763 171.93C50.7336 171.93 52.6234 172.713 54.0168 174.106C55.4102 175.5 56.193 177.39 56.193 179.36C56.193 181.331 55.4102 183.221 54.0168 184.614C52.6234 186.007 50.7336 186.79 48.763 186.79V186.79Z"/><path fill="#9FEAF9" d="M127.883 53.526C134.932 53.526 140.646 47.812 140.646 40.763C140.646 33.714 134.932 28 127.883 28C120.834 28 115.12 33.714 115.12 40.763C115.12 47.812 120.834 53.526 127.883 53.526V53.526ZM127.883 48.193C125.912 48.193 124.023 47.4102 122.629 46.0168C121.236 44.6234 120.453 42.7336 120.453 40.763C120.453 38.7924 121.236 36.9026 122.629 35.5092C124.023 34.1158 125.912 33.333 127.883 33.333C129.854 33.333 131.743 34.1158 133.137 35.5092C134.53 36.9026 135.313 38.7924 135.313 40.763C135.313 42.7336 134.53 44.6234 133.137 46.0168C131.743 47.4102 129.854 48.193 127.883 48.193V48.193ZM129.832 141.575C124.847 142.652 119.936 139.484 118.857 134.499C118.34 132.105 118.795 129.604 120.122 127.546C121.449 125.488 123.539 124.041 125.933 123.523C130.918 122.446 135.829 125.614 136.909 130.599C137.986 135.584 134.818 140.496 129.832 141.575Z"/></svg>
        </g>
         
        <g transform="translate(600, 600)">
          <svg width="256" height="256" viewBox="0 0 256 256" fill="none" xmlns="http://www.w3.org/2000/svg">
<g clip-path="url(#clip0_45_439)">
<path d="M196 0H60C26.8629 0 0 26.8629 0 60V196C0 229.137 26.8629 256 60 256H196C229.137 256 256 229.137 256 196V60C256 26.8629 229.137 0 196 0Z" fill="#242938"/>
<path d="M105.017 110.067L108.483 47.5L144.867 67.6667L105.017 110.067Z" fill="url(#paint0_linear_45_439)"/>
<path d="M105.017 110.067L108.483 47.5L62.2833 76.6167L47.5 165.133L105.017 110.067Z" fill="url(#paint1_linear_45_439)"/>
<path d="M204.317 95.4501L183.733 53.6001L144.867 67.6668L105.017 110.067L47.5 165.133L99.3833 202.9L164.6 144.083L204.317 95.4501Z" fill="url(#paint2_linear_45_439)"/>
<path d="M177.5 139.233V177.5H114.667L142.283 198.867L182.283 207.5L207.5 150.417L177.5 139.233Z" fill="url(#paint3_linear_45_439)"/>
<path d="M77.5 77.5H177.5V177.5H77.5V77.5Z" fill="black"/>
<path d="M89.9668 158.6H127.467V164.85H89.9668V158.6Z" fill="white"/>
<path d="M127.583 89.9001H135.917V120.55H152.334V127.5H127.583V89.9001Z" fill="white"/>
<path d="M87.3001 108.95V108.85C87.2543 106.255 87.7341 103.678 88.7107 101.273C89.6872 98.8689 91.1403 96.6869 92.9825 94.8587C94.8246 93.0306 97.0176 91.5942 99.4296 90.6361C101.841 89.6779 104.422 89.2178 107.017 89.2834C109.772 89.1477 112.524 89.5974 115.092 90.6029C117.66 91.6084 119.986 93.1468 121.917 95.1167L116.667 101.233C114.124 98.5962 110.646 97.0638 106.983 96.9667C100.617 96.9667 96.0334 102.25 96.0334 108.733V108.85C96.0334 115.333 100.517 120.733 106.983 120.733C111.317 120.733 113.95 119.067 116.983 116.3L122.183 121.667C120.27 123.879 117.879 125.629 115.192 126.784C112.504 127.939 109.589 128.469 106.667 128.333C104.112 128.372 101.575 127.896 99.2066 126.936C96.8385 125.975 94.6876 124.548 92.8813 122.74C91.075 120.933 89.6503 118.78 88.6916 116.411C87.7328 114.043 87.2597 111.505 87.3001 108.95Z" fill="white"/>
</g>
<defs>
<linearGradient id="paint0_linear_45_439" x1="105.017" y1="78.7833" x2="150.85" y2="78.7833" gradientUnits="userSpaceOnUse">
<stop stop-color="#FF318C"/>
<stop offset="0.15" stop-color="#FB348C"/>
<stop offset="0.28" stop-color="#F03C8C"/>
<stop offset="0.42" stop-color="#DE4A8C"/>
<stop offset="0.54" stop-color="#C45D8B"/>
<stop offset="0.67" stop-color="#A2778B"/>
<stop offset="0.79" stop-color="#79958A"/>
<stop offset="0.91" stop-color="#49B98A"/>
<stop offset="1" stop-color="#21D789"/>
</linearGradient>
<linearGradient id="paint1_linear_45_439" x1="86.65" y1="67.8" x2="63.1167" y2="225.7" gradientUnits="userSpaceOnUse">
<stop offset="0.09" stop-color="#21D789"/>
<stop offset="0.9" stop-color="#009AE5"/>
</linearGradient>
<linearGradient id="paint2_linear_45_439" x1="193.417" y1="62.3334" x2="32.45" y2="232.333" gradientUnits="userSpaceOnUse">
<stop offset="0.09" stop-color="#21D789"/>
<stop offset="0.9" stop-color="#009AE5"/>
</linearGradient>
<linearGradient id="paint3_linear_45_439" x1="144.733" y1="168.367" x2="199.783" y2="176.2" gradientUnits="userSpaceOnUse">
<stop offset="0.09" stop-color="#21D789"/>
<stop offset="0.9" stop-color="#009AE5"/>
</linearGradient>
<clipPath id="clip0_45_439">
<rect width="256" height="256" fill="white"/>
</clipPath>
</defs>
</svg>

        </g>
         
        <g transform="translate(900, 600)">
          <svg xmlns="http://www.w3.org/2000/svg" width="256" height="256" fill="none" viewBox="0 0 256 256"><rect width="256" height="256" fill="#00599C" rx="60"/><path fill="#fff" d="M110.759 210.517C65.1254 210.517 28 173.392 28 127.759C28 82.1254 65.1254 45 110.759 45C140.204 45 167.667 60.8458 182.427 86.3533L146.611 107.079C139.224 94.3111 125.485 86.3793 110.759 86.3793C87.9416 86.3793 69.3793 104.942 69.3793 127.759C69.3793 150.575 87.9416 169.138 110.759 169.138C125.486 169.138 139.225 161.206 146.613 148.436L182.429 169.161C167.669 194.671 140.206 210.517 110.759 210.517Z"/><path fill="#fff" d="M193.517 123.161H184.321V113.965H175.127V123.161H165.931V132.356H175.127V141.552H184.321V132.356H193.517V123.161Z"/><path fill="#fff" d="M228 123.161H218.804V113.965H209.61V123.161H200.414V132.356H209.61V141.552H218.804V132.356H228V123.161Z"/></svg>
        </g>
         
        <g transform="translate(1200, 600)">
          <svg xmlns="http://www.w3.org/2000/svg" width="256" height="256" fill="none" viewBox="0 0 256 256"><rect width="256" height="256" fill="#242938" rx="60"/><path fill="#fff" d="M222.017 163.681C222.017 163.681 221.705 161.792 221.522 161.809L186.772 165.116C184.007 165.379 181.86 167.554 181.666 170.286L180.711 183.781L153.827 185.673L151.998 173.442C151.591 170.722 149.182 168.672 146.394 168.672H109.718C106.931 168.672 104.522 170.722 104.115 173.442L102.285 185.673L75.4013 183.781L74.4466 170.286C74.2526 167.553 72.1051 165.378 69.3401 165.115L34.573 161.809C34.3934 161.792 34.2618 163.683 34.0822 163.683L34.0352 171.099L63.4796 175.782L64.4439 189.397C64.6389 192.153 66.8939 194.382 69.6906 194.58L106.716 197.185C106.856 197.194 106.994 197.2 107.133 197.2C109.915 197.2 112.32 195.148 112.727 192.428L114.608 179.844H141.505L143.386 192.428C143.793 195.147 146.2 197.199 148.987 197.199C149.123 197.199 149.259 197.194 149.393 197.185L186.423 194.58C189.218 194.382 191.474 192.153 191.669 189.397L192.633 175.782L222.065 171.078L222.017 163.681Z"/><path fill="#478CBF" d="M34.0818 107.758V152.763V158.479V163.681C34.1856 163.682 34.2893 163.686 34.3921 163.695L69.1553 167.001C70.9763 167.174 72.4034 168.619 72.5302 170.419L73.602 185.553L103.926 187.687L106.015 173.719C106.286 171.908 107.861 170.566 109.719 170.566H146.395C148.251 170.566 149.827 171.908 150.097 173.719L152.186 187.687L182.511 185.553L183.582 170.419C183.71 168.619 185.136 167.175 186.957 167.001L221.707 163.695C221.81 163.686 221.913 163.682 222.016 163.681V159.219L222.031 159.214V107.758H222.159C226.765 101.961 231.026 95.8527 235.113 89.3361C229.685 80.2242 223.035 72.0812 215.927 64.5368C209.335 67.8094 202.932 71.5167 196.884 75.4617C193.858 72.4951 190.449 70.0684 187.101 67.5318C183.812 64.9261 180.105 63.0157 176.589 60.7898C177.635 53.1014 178.153 45.5325 178.361 37.6329C169.289 33.13 159.615 30.1445 149.829 28C145.922 34.476 142.35 41.4889 139.238 48.3447C135.548 47.7366 131.841 47.5112 128.129 47.4676V47.4619C128.103 47.4619 128.079 47.4676 128.057 47.4676C128.034 47.4676 128.01 47.4619 127.987 47.4619V47.4676C124.268 47.5112 120.564 47.7366 116.873 48.3447C113.763 41.4889 110.192 34.476 106.279 28C96.4984 30.1445 86.8232 33.13 77.752 37.6329C77.9595 45.5325 78.4771 53.1014 79.5269 60.7898C76.0041 63.0157 72.3016 64.9261 69.0113 67.5318C65.668 70.0684 62.2538 72.4951 59.2265 75.4617C53.1788 71.5167 46.7776 67.8094 40.1834 64.5368C33.0753 72.0812 26.4292 80.2242 21 89.3361C25.0847 95.8527 29.3489 101.961 33.9531 107.758H34.0818Z"/><path fill="#478CBF" d="M190.83 174.05L189.753 189.265C189.624 191.099 188.144 192.558 186.285 192.69L149.256 195.296C149.166 195.302 149.076 195.305 148.986 195.305C147.146 195.305 145.559 193.973 145.287 192.151L143.163 177.949H112.95L110.826 192.151C110.541 194.062 108.808 195.437 106.857 195.296L69.8278 192.69C67.9684 192.558 66.4894 191.099 66.3597 189.265L65.2831 174.05L34.0244 171.078C34.0388 174.391 34.0821 178.021 34.0821 178.744C34.0821 211.302 75.961 226.952 127.993 227.132H128.056H128.12C180.152 226.952 222.016 211.302 222.016 178.744C222.016 178.008 222.062 174.393 222.077 171.078L190.83 174.05Z"/><path fill="#fff" d="M99.7266 130.459C99.7266 141.874 90.3481 151.122 78.777 151.122C67.2117 151.122 57.8303 141.874 57.8303 130.459C57.8303 119.051 67.2117 109.808 78.777 109.808C90.3481 109.808 99.7266 119.051 99.7266 130.459Z"/><path fill="#414042" d="M94.6858 131.684C94.6858 139.256 88.4632 145.393 80.7799 145.393C73.1004 145.393 66.874 139.256 66.874 131.684C66.874 124.112 73.1004 117.97 80.7799 117.97C88.4632 117.97 94.6858 124.112 94.6858 131.684Z"/><path fill="#fff" d="M128.055 153.001C124.33 153.001 121.312 150.294 121.312 146.957V127.937C121.312 124.603 124.33 121.893 128.055 121.893C131.779 121.893 134.804 124.603 134.804 127.937V146.957C134.804 150.294 131.779 153.001 128.055 153.001Z"/><path fill="#fff" d="M156.386 130.459C156.386 141.874 165.765 151.122 177.338 151.122C188.902 151.122 198.283 141.874 198.283 130.459C198.283 119.051 188.902 109.808 177.338 109.808C165.765 109.808 156.386 119.051 156.386 130.459Z"/><path fill="#414042" d="M161.428 131.684C161.428 139.256 167.649 145.393 175.327 145.393C183.012 145.393 189.233 139.256 189.233 131.684C189.233 124.112 183.012 117.97 175.327 117.97C167.649 117.97 161.428 124.112 161.428 131.684Z"/></svg>
        </g>
        
  </svg>
  